<svg width="92" height="19" viewBox="0 0 92 19" fill="none" xmlns="http://www.w3.org/2000/svg">
<path d="M13.3672 12.5859C13.1562 14.3906 12.4883 15.7852 11.3633 16.7695C10.2461 17.7461 8.75781 18.2344 6.89844 18.2344C4.88281 18.2344 3.26562 17.5117 2.04688 16.0664C0.835938 14.6211 0.230469 12.6875 0.230469 10.2656V8.625C0.230469 7.03906 0.511719 5.64453 1.07422 4.44141C1.64453 3.23828 2.44922 2.31641 3.48828 1.67578C4.52734 1.02734 5.73047 0.703125 7.09766 0.703125C8.91016 0.703125 10.3633 1.21094 11.457 2.22656C12.5508 3.23438 13.1875 4.63281 13.3672 6.42188H11.1055C10.9102 5.0625 10.4844 4.07812 9.82812 3.46875C9.17969 2.85938 8.26953 2.55469 7.09766 2.55469C5.66016 2.55469 4.53125 3.08594 3.71094 4.14844C2.89844 5.21094 2.49219 6.72266 2.49219 8.68359V10.3359C2.49219 12.1875 2.87891 13.6602 3.65234 14.7539C4.42578 15.8477 5.50781 16.3945 6.89844 16.3945C8.14844 16.3945 9.10547 16.1133 9.76953 15.5508C10.4414 14.9805 10.8867 13.9922 11.1055 12.5859H13.3672ZM25.8711 13.5469H18.7227L17.1172 18H14.7969L21.3125 0.9375H23.2812L29.8086 18H27.5L25.8711 13.5469ZM19.4023 11.6953H25.2031L22.2969 3.71484L19.4023 11.6953ZM45.2188 18H42.957L34.3672 4.85156V18H32.1055V0.9375H34.3672L42.9805 14.1445V0.9375H45.2188V18ZM58.8594 10.1133H51.4648V16.1602H60.0547V18H49.2148V0.9375H59.9375V2.78906H51.4648V8.27344H58.8594V10.1133ZM75.4062 12.5859C75.1953 14.3906 74.5273 15.7852 73.4023 16.7695C72.2852 17.7461 70.7969 18.2344 68.9375 18.2344C66.9219 18.2344 65.3047 17.5117 64.0859 16.0664C62.875 14.6211 62.2695 12.6875 62.2695 10.2656V8.625C62.2695 7.03906 62.5508 5.64453 63.1133 4.44141C63.6836 3.23828 64.4883 2.31641 65.5273 1.67578C66.5664 1.02734 67.7695 0.703125 69.1367 0.703125C70.9492 0.703125 72.4023 1.21094 73.4961 2.22656C74.5898 3.23438 75.2266 4.63281 75.4062 6.42188H73.1445C72.9492 5.0625 72.5234 4.07812 71.8672 3.46875C71.2188 2.85938 70.3086 2.55469 69.1367 2.55469C67.6992 2.55469 66.5703 3.08594 65.75 4.14844C64.9375 5.21094 64.5312 6.72266 64.5312 8.68359V10.3359C64.5312 12.1875 64.918 13.6602 65.6914 14.7539C66.4648 15.8477 67.5469 16.3945 68.9375 16.3945C70.1875 16.3945 71.1445 16.1133 71.8086 15.5508C72.4805 14.9805 72.9258 13.9922 73.1445 12.5859H75.4062ZM87.9102 13.5469H80.7617L79.1562 18H76.8359L83.3516 0.9375H85.3203L91.8477 18H89.5391L87.9102 13.5469ZM81.4414 11.6953H87.2422L84.3359 3.71484L81.4414 11.6953Z" fill="black"/>
</svg>
