<svg width="87" height="19" viewBox="0 0 87 19" fill="none" xmlns="http://www.w3.org/2000/svg">
<path d="M13.5586 12.5859C13.3477 14.3906 12.6797 15.7852 11.5547 16.7695C10.4375 17.7461 8.94922 18.2344 7.08984 18.2344C5.07422 18.2344 3.45703 17.5117 2.23828 16.0664C1.02734 14.6211 0.421875 12.6875 0.421875 10.2656V8.625C0.421875 7.03906 0.703125 5.64453 1.26562 4.44141C1.83594 3.23828 2.64062 2.31641 3.67969 1.67578C4.71875 1.02734 5.92188 0.703125 7.28906 0.703125C9.10156 0.703125 10.5547 1.21094 11.6484 2.22656C12.7422 3.23438 13.3789 4.63281 13.5586 6.42188H11.2969C11.1016 5.0625 10.6758 4.07812 10.0195 3.46875C9.37109 2.85938 8.46094 2.55469 7.28906 2.55469C5.85156 2.55469 4.72266 3.08594 3.90234 4.14844C3.08984 5.21094 2.68359 6.72266 2.68359 8.68359V10.3359C2.68359 12.1875 3.07031 13.6602 3.84375 14.7539C4.61719 15.8477 5.69922 16.3945 7.08984 16.3945C8.33984 16.3945 9.29688 16.1133 9.96094 15.5508C10.6328 14.9805 11.0781 13.9922 11.2969 12.5859H13.5586ZM26.0625 13.5469H18.9141L17.3086 18H14.9883L21.5039 0.9375H23.4727L30 18H27.6914L26.0625 13.5469ZM19.5938 11.6953H25.3945L22.4883 3.71484L19.5938 11.6953ZM36.9141 15.0117L41.7891 0.9375H44.25L37.9219 18H35.9297L29.6133 0.9375H32.0625L36.9141 15.0117ZM55.0781 13.5469H47.9297L46.3242 18H44.0039L50.5195 0.9375H52.4883L59.0156 18H56.707L55.0781 13.5469ZM48.6094 11.6953H54.4102L51.5039 3.71484L48.6094 11.6953ZM63.5742 16.1602H71.6602V18H61.3125V0.9375H63.5742V16.1602ZM86.5781 10.0195C86.5781 11.6914 86.2969 13.1523 85.7344 14.4023C85.1719 15.6445 84.375 16.5938 83.3438 17.25C82.3125 17.9062 81.1094 18.2344 79.7344 18.2344C78.3906 18.2344 77.1992 17.9062 76.1602 17.25C75.1211 16.5859 74.3125 15.6445 73.7344 14.4258C73.1641 13.1992 72.8711 11.7812 72.8555 10.1719V8.94141C72.8555 7.30078 73.1406 5.85156 73.7109 4.59375C74.2812 3.33594 75.0859 2.375 76.125 1.71094C77.1719 1.03906 78.3672 0.703125 79.7109 0.703125C81.0781 0.703125 82.2812 1.03516 83.3203 1.69922C84.3672 2.35547 85.1719 3.3125 85.7344 4.57031C86.2969 5.82031 86.5781 7.27734 86.5781 8.94141V10.0195ZM84.3398 8.91797C84.3398 6.89453 83.9336 5.34375 83.1211 4.26562C82.3086 3.17969 81.1719 2.63672 79.7109 2.63672C78.2891 2.63672 77.168 3.17969 76.3477 4.26562C75.5352 5.34375 75.1172 6.84375 75.0938 8.76562V10.0195C75.0938 11.9805 75.5039 13.5234 76.3242 14.6484C77.1523 15.7656 78.2891 16.3242 79.7344 16.3242C81.1875 16.3242 82.3125 15.7969 83.1094 14.7422C83.9062 13.6797 84.3164 12.1602 84.3398 10.1836V8.91797Z" fill="black"/>
</svg>
