<svg width="100" height="19" viewBox="0 0 100 19" fill="none" xmlns="http://www.w3.org/2000/svg">
<path d="M13.3008 15.7617C12.7227 16.5898 11.9141 17.2109 10.875 17.625C9.84375 18.0312 8.64062 18.2344 7.26562 18.2344C5.875 18.2344 4.64062 17.9102 3.5625 17.2617C2.48438 16.6055 1.64844 15.6758 1.05469 14.4727C0.46875 13.2695 0.167969 11.875 0.152344 10.2891V8.80078C0.152344 6.23047 0.75 4.23828 1.94531 2.82422C3.14844 1.41016 4.83594 0.703125 7.00781 0.703125C8.78906 0.703125 10.2227 1.16016 11.3086 2.07422C12.3945 2.98047 13.0586 4.26953 13.3008 5.94141H11.0508C10.6289 3.68359 9.28516 2.55469 7.01953 2.55469C5.51172 2.55469 4.36719 3.08594 3.58594 4.14844C2.8125 5.20312 2.42188 6.73438 2.41406 8.74219V10.1367C2.41406 12.0508 2.85156 13.5742 3.72656 14.707C4.60156 15.832 5.78516 16.3945 7.27734 16.3945C8.12109 16.3945 8.85938 16.3008 9.49219 16.1133C10.125 15.9258 10.6484 15.6094 11.0625 15.1641V11.332H7.11328V9.50391H13.3008V15.7617ZM26.4844 13.5469H19.3359L17.7305 18H15.4102L21.9258 0.9375H23.8945L30.4219 18H28.1133L26.4844 13.5469ZM20.0156 11.6953H25.8164L22.9102 3.71484L20.0156 11.6953ZM34.9805 16.1602H43.0664V18H32.7188V0.9375H34.9805V16.1602ZM48.0469 18H45.7969V0.9375H48.0469V18ZM65.2852 18H63.0234L54.4336 4.85156V18H52.1719V0.9375H54.4336L63.0469 14.1445V0.9375H65.2852V18ZM82.3945 18H80.1328V10.1133H71.5312V18H69.2812V0.9375H71.5312V8.27344H80.1328V0.9375H82.3945V18ZM96.0234 13.5469H88.875L87.2695 18H84.9492L91.4648 0.9375H93.4336L99.9609 18H97.6523L96.0234 13.5469ZM89.5547 11.6953H95.3555L92.4492 3.71484L89.5547 11.6953Z" fill="black"/>
</svg>
