<svg id="Layer_1" enable-background="new 0 0 512 512" height="512" viewBox="0 0 512 512" width="512" xmlns="http://www.w3.org/2000/svg"><g><g><g><g id="XMLID_1395_"><g id="XMLID_1396_"><g id="XMLID_1397_"><g id="XMLID_1398_"><g id="XMLID_1399_"><g id="XMLID_1400_"><g id="XMLID_1420_"><g id="XMLID_1421_"><g id="XMLID_1422_"><g id="XMLID_1423_"><g id="XMLID_1424_"><g id="XMLID_1425_"><g id="XMLID_1426_"><g id="XMLID_1427_"><g id="XMLID_1428_"><circle cx="256" cy="256" fill="#fc445f" r="256"/></g></g></g></g></g></g></g></g></g></g></g></g></g></g></g></g></g><path d="m512 256c0-5.47-.192-10.894-.53-16.279l-40.836-40.13-8.767-.124-60.322-59.669s-11.895-6.797-21.378-6.797l-77.533-78.5-93.268 39.38 46.967 43.786-213.478 92.143 72.239 72.179 17.699 108.886 100.073 100.073c7.622.683 15.335 1.052 23.134 1.052 141.385 0 256-114.615 256-256z" fill="#e00f5a"/><g><g><path d="m57.388 235.661h54.617v-43.5h-54.617c-11.591 0-20.988 9.397-20.988 20.988v1.524c0 11.592 9.396 20.988 20.988 20.988z" fill="#d2ebff"/><path d="m399.995 235.661h54.617c11.591 0 20.988-9.397 20.988-20.988v-1.524c0-11.591-9.397-20.988-20.988-20.988h-54.617z" fill="#9eccf2"/></g><g><path d="m236.569 85.438h38.862v50.909h-38.862z" fill="#d2ebff" transform="matrix(0 1 -1 0 366.893 -145.107)"/><path d="m255.997 91.465h25.462v38.862h-25.462z" fill="#9eccf2"/><path d="m209.366 54.5h93.268v39.38h-93.268z" fill="#776d6b"/><path d="m255.997 54.5h46.634v39.38h-46.634z" fill="#605553"/></g><path d="m328.513 429.797h-145.026c-42.776 0-77.452-34.677-77.452-77.452v-178.172h299.931v178.172c0 42.776-34.677 77.452-77.453 77.452z" fill="#eef9ff"/><path d="m405.97 174.17v178.17c0 42.78-34.68 77.46-77.46 77.46h-72.51v-255.63z" fill="#d2ebff"/><path d="m148.281 175.223v78.518c0 13.192 10.694 23.886 23.886 23.886 13.192 0 23.886-10.694 23.886-23.886v-3.78c0-12.175 9.87-22.045 22.045-22.045 12.175 0 22.045 9.87 22.045 22.045v41.764c0 11.176 9.059 20.235 20.235 20.235h7.302c11.175 0 20.235-9.06 20.235-20.235v-117.552z" fill="#fbbe2c"/><path d="m287.91 174.17v117.56c0 11.17-9.05 20.23-20.23 20.23h-7.3c-1.5 0-2.97-.16-4.38-.48v-137.07z" fill="#fd9827"/><path d="m405.966 192.161h-299.932v-37.541c0-14.956 12.124-27.081 27.081-27.081h245.77c14.956 0 27.081 12.124 27.081 27.081z" fill="#776d6b"/><path d="m405.97 154.62v37.54h-149.97v-64.62h122.88c14.96 0 27.09 12.12 27.09 27.08z" fill="#605553"/></g></g></svg>