<svg width="87" height="18" viewBox="0 0 87 18" fill="none" xmlns="http://www.w3.org/2000/svg">
<path d="M2.36328 11.3203V18H0.113281V0.9375H6.40625C8.27344 0.9375 9.73438 1.41406 10.7891 2.36719C11.8516 3.32031 12.3828 4.58203 12.3828 6.15234C12.3828 7.80859 11.8633 9.08594 10.8242 9.98438C9.79297 10.875 8.3125 11.3203 6.38281 11.3203H2.36328ZM2.36328 9.48047H6.40625C7.60938 9.48047 8.53125 9.19922 9.17188 8.63672C9.8125 8.06641 10.1328 7.24609 10.1328 6.17578C10.1328 5.16016 9.8125 4.34766 9.17188 3.73828C8.53125 3.12891 7.65234 2.8125 6.53516 2.78906H2.36328V9.48047ZM23.0586 13.5469H15.9102L14.3047 18H11.9844L18.5 0.9375H20.4688L26.9961 18H24.6875L23.0586 13.5469ZM16.5898 11.6953H22.3906L19.4844 3.71484L16.5898 11.6953ZM42.4062 18H40.1445L31.5547 4.85156V18H29.293V0.9375H31.5547L40.168 14.1445V0.9375H42.4062V18ZM56.0469 10.1133H48.6523V16.1602H57.2422V18H46.4023V0.9375H57.125V2.78906H48.6523V8.27344H56.0469V10.1133ZM62.3047 16.1602H70.3906V18H60.043V0.9375H62.3047V16.1602ZM82.6133 13.5469H75.4648L73.8594 18H71.5391L78.0547 0.9375H80.0234L86.5508 18H84.2422L82.6133 13.5469ZM76.1445 11.6953H81.9453L79.0391 3.71484L76.1445 11.6953Z" fill="black"/>
</svg>
