<svg width="56" height="19" viewBox="0 0 56 19" fill="none" xmlns="http://www.w3.org/2000/svg">
<path d="M2.65625 11.3203V18H0.40625V0.9375H6.69922C8.56641 0.9375 10.0273 1.41406 11.082 2.36719C12.1445 3.32031 12.6758 4.58203 12.6758 6.15234C12.6758 7.80859 12.1562 9.08594 11.1172 9.98438C10.0859 10.875 8.60547 11.3203 6.67578 11.3203H2.65625ZM2.65625 9.48047H6.69922C7.90234 9.48047 8.82422 9.19922 9.46484 8.63672C10.1055 8.06641 10.4258 7.24609 10.4258 6.17578C10.4258 5.16016 10.1055 4.34766 9.46484 3.73828C8.82422 3.12891 7.94531 2.8125 6.82812 2.78906H2.65625V9.48047ZM23.3516 13.5469H16.2031L14.5977 18H12.2773L18.793 0.9375H20.7617L27.2891 18H24.9805L23.3516 13.5469ZM16.8828 11.6953H22.6836L19.7773 3.71484L16.8828 11.6953ZM39.8516 2.78906H34.3672V18H32.1289V2.78906H26.6562V0.9375H39.8516V2.78906ZM55.1797 10.0195C55.1797 11.6914 54.8984 13.1523 54.3359 14.4023C53.7734 15.6445 52.9766 16.5938 51.9453 17.25C50.9141 17.9062 49.7109 18.2344 48.3359 18.2344C46.9922 18.2344 45.8008 17.9062 44.7617 17.25C43.7227 16.5859 42.9141 15.6445 42.3359 14.4258C41.7656 13.1992 41.4727 11.7812 41.457 10.1719V8.94141C41.457 7.30078 41.7422 5.85156 42.3125 4.59375C42.8828 3.33594 43.6875 2.375 44.7266 1.71094C45.7734 1.03906 46.9688 0.703125 48.3125 0.703125C49.6797 0.703125 50.8828 1.03516 51.9219 1.69922C52.9688 2.35547 53.7734 3.3125 54.3359 4.57031C54.8984 5.82031 55.1797 7.27734 55.1797 8.94141V10.0195ZM52.9414 8.91797C52.9414 6.89453 52.5352 5.34375 51.7227 4.26562C50.9102 3.17969 49.7734 2.63672 48.3125 2.63672C46.8906 2.63672 45.7695 3.17969 44.9492 4.26562C44.1367 5.34375 43.7188 6.84375 43.6953 8.76562V10.0195C43.6953 11.9805 44.1055 13.5234 44.9258 14.6484C45.7539 15.7656 46.8906 16.3242 48.3359 16.3242C49.7891 16.3242 50.9141 15.7969 51.7109 14.7422C52.5078 13.6797 52.918 12.1602 52.9414 10.1836V8.91797Z" fill="black"/>
</svg>
