<svg height="512pt" viewBox="-30 0 512 512" width="512pt" xmlns="http://www.w3.org/2000/svg"><path d="m320 47v270c0 8.285156 6.714844 15 15 15s15-6.714844 15-15v-270zm0 0" fill="#323c3c"/><path d="m40 47.425781v269.574219c0 8.285156 6.714844 15 15 15s15-6.714844 15-15v-270zm0 0" fill="#3f4a4a"/><path d="m195 152c-8.285156 0-15-6.714844-15-15v-60c0-8.285156 6.714844-15 15-15s15 6.714844 15 15v60c0 8.285156-6.714844 15-15 15zm0 0" fill="#995b0f"/><path d="m210 137v-60c0-8.285156-6.714844-15-15-15v90c8.285156 0 15-6.714844 15-15zm0 0" fill="#7d4a0c"/><path d="m115 62h-98c-8.285156 0-15-6.714844-15-15s6.714844-15 15-15h98c8.285156 0 15 6.714844 15 15s-6.714844 15-15 15zm0 0" fill="#cde1e6"/><path d="m436 137h-39c-8.285156 0-15-6.714844-15-15v-60h-107c-8.285156 0-15-6.714844-15-15s6.714844-15 15-15h122c8.285156 0 15 6.714844 15 15v60h24c8.285156 0 15 6.714844 15 15s-6.714844 15-15 15zm0 0" fill="#bfd2d9"/><path d="m375 302h-360c-8.285156 0-15 6.714844-15 15v180c0 8.285156 6.714844 15 15 15h360c8.285156 0 15-6.714844 15-15v-180c0-8.285156-6.714844-15-15-15zm0 0" fill="#cde1e6"/><path d="m375 302h-180v210h180c8.285156 0 15-6.714844 15-15v-180c0-8.285156-6.714844-15-15-15zm0 0" fill="#bfd2d9"/><path d="m30 392h210v30h-210zm0 0" fill="#995b0f"/><path d="m270 392h90v30h-90zm0 0" fill="#7d4a0c"/><g fill="#995b0f"><path d="m150 332h210v30h-210zm0 0"/><path d="m30 332h90v30h-90zm0 0"/><path d="m30 452h90v30h-90zm0 0"/><path d="m150 452h210v30h-210zm0 0"/></g><path d="m195 392h45v30h-45zm0 0" fill="#7d4a0c"/><path d="m195 332h165v30h-165zm0 0" fill="#7d4a0c"/><path d="m195 452h165v30h-165zm0 0" fill="#7d4a0c"/><path d="m245 272h-100c-7.800781 0-14.300781-5.980469-14.949219-13.753906l-10-120c-.347656-4.179688 1.070313-8.316406 3.910157-11.402344 2.839843-3.085938 6.84375-4.84375 11.039062-4.84375h120c4.195312 0 8.199219 1.757812 11.039062 4.84375 2.839844 3.085938 4.257813 7.222656 3.910157 11.402344l-10 120c-.648438 7.773437-7.148438 13.753906-14.949219 13.753906zm0 0" fill="#00d7df"/><path d="m255 122h-60v150h50c7.800781 0 14.300781-5.980469 14.949219-13.753906l10-120c.347656-4.179688-1.070313-8.316406-3.910157-11.402344-2.839843-3.085938-6.84375-4.84375-11.039062-4.84375zm0 0" fill="#00c7ce"/><path d="m275 90h-160c-8.285156 0-15-6.714844-15-15v-60c0-8.285156 6.714844-15 15-15h160c8.285156 0 15 6.714844 15 15v60c0 8.285156-6.714844 15-15 15zm0 0" fill="#ffa300"/><path d="m275 0h-80v90h80c8.285156 0 15-6.714844 15-15v-60c0-8.285156-6.714844-15-15-15zm0 0" fill="#e6932e"/></svg>