<svg width="61" height="24" viewBox="0 0 61 24" fill="none" xmlns="http://www.w3.org/2000/svg">
<path d="M2.84375 11.3203V18H0.59375V0.9375H6.88672C8.75391 0.9375 10.2148 1.41406 11.2695 2.36719C12.332 3.32031 12.8633 4.58203 12.8633 6.15234C12.8633 7.80859 12.3438 9.08594 11.3047 9.98438C10.2734 10.875 8.79297 11.3203 6.86328 11.3203H2.84375ZM2.84375 9.48047H6.88672C8.08984 9.48047 9.01172 9.19922 9.65234 8.63672C10.293 8.06641 10.6133 7.24609 10.6133 6.17578C10.6133 5.16016 10.293 4.34766 9.65234 3.73828C9.01172 3.12891 8.13281 2.8125 7.01562 2.78906H2.84375V9.48047ZM28.8594 10.0195C28.8594 11.6914 28.5781 13.1523 28.0156 14.4023C27.4531 15.6445 26.6562 16.5938 25.625 17.25C24.5938 17.9062 23.3906 18.2344 22.0156 18.2344C20.6719 18.2344 19.4805 17.9062 18.4414 17.25C17.4023 16.5859 16.5938 15.6445 16.0156 14.4258C15.4453 13.1992 15.1523 11.7812 15.1367 10.1719V8.94141C15.1367 7.30078 15.4219 5.85156 15.9922 4.59375C16.5625 3.33594 17.3672 2.375 18.4062 1.71094C19.4531 1.03906 20.6484 0.703125 21.9922 0.703125C23.3594 0.703125 24.5625 1.03516 25.6016 1.69922C26.6484 2.35547 27.4531 3.3125 28.0156 4.57031C28.5781 5.82031 28.8594 7.27734 28.8594 8.94141V10.0195ZM26.6211 8.91797C26.6211 6.89453 26.2148 5.34375 25.4023 4.26562C24.5898 3.17969 23.4531 2.63672 21.9922 2.63672C20.5703 2.63672 19.4492 3.17969 18.6289 4.26562C17.8164 5.34375 17.3984 6.84375 17.375 8.76562V10.0195C17.375 11.9805 17.7852 13.5234 18.6055 14.6484C19.4336 15.7656 20.5703 16.3242 22.0156 16.3242C23.4688 16.3242 24.5938 15.7969 25.3906 14.7422C26.1875 13.6797 26.5977 12.1602 26.6211 10.1836V8.91797ZM44.7852 12.5859C44.5742 14.3906 43.9062 15.7852 42.7812 16.7695C41.6641 17.7461 40.1758 18.2344 38.3164 18.2344C36.3008 18.2344 34.6836 17.5117 33.4648 16.0664C32.2539 14.6211 31.6484 12.6875 31.6484 10.2656V8.625C31.6484 7.03906 31.9297 5.64453 32.4922 4.44141C33.0625 3.23828 33.8672 2.31641 34.9062 1.67578C35.9453 1.02734 37.1484 0.703125 38.5156 0.703125C40.3281 0.703125 41.7812 1.21094 42.875 2.22656C43.9688 3.23438 44.6055 4.63281 44.7852 6.42188H42.5234C42.3281 5.0625 41.9023 4.07812 41.2461 3.46875C40.5977 2.85938 39.6875 2.55469 38.5156 2.55469C37.0781 2.55469 35.9492 3.08594 35.1289 4.14844C34.3164 5.21094 33.9102 6.72266 33.9102 8.68359V10.3359C33.9102 12.1875 34.2969 13.6602 35.0703 14.7539C35.8438 15.8477 36.9258 16.3945 38.3164 16.3945C39.5664 16.3945 40.5234 16.1133 41.1875 15.5508C41.8594 14.9805 42.3047 13.9922 42.5234 12.5859H44.7852ZM39.0547 18.1055L38.9141 18.7148C40.1094 18.9258 40.707 19.6016 40.707 20.7422C40.707 21.5 40.3945 22.0977 39.7695 22.5352C39.1445 22.9805 38.2734 23.2031 37.1562 23.2031L37.0742 21.9492C37.6914 21.9492 38.168 21.8477 38.5039 21.6445C38.8477 21.4414 39.0195 21.1562 39.0195 20.7891C39.0195 20.4453 38.8945 20.1914 38.6445 20.0273C38.3945 19.8633 37.8867 19.7461 37.1211 19.6758L37.4961 18.1055H39.0547ZM60.9922 10.0195C60.9922 11.6914 60.7109 13.1523 60.1484 14.4023C59.5859 15.6445 58.7891 16.5938 57.7578 17.25C56.7266 17.9062 55.5234 18.2344 54.1484 18.2344C52.8047 18.2344 51.6133 17.9062 50.5742 17.25C49.5352 16.5859 48.7266 15.6445 48.1484 14.4258C47.5781 13.1992 47.2852 11.7812 47.2695 10.1719V8.94141C47.2695 7.30078 47.5547 5.85156 48.125 4.59375C48.6953 3.33594 49.5 2.375 50.5391 1.71094C51.5859 1.03906 52.7812 0.703125 54.125 0.703125C55.4922 0.703125 56.6953 1.03516 57.7344 1.69922C58.7812 2.35547 59.5859 3.3125 60.1484 4.57031C60.7109 5.82031 60.9922 7.27734 60.9922 8.94141V10.0195ZM58.7539 8.91797C58.7539 6.89453 58.3477 5.34375 57.5352 4.26562C56.7227 3.17969 55.5859 2.63672 54.125 2.63672C52.7031 2.63672 51.582 3.17969 50.7617 4.26562C49.9492 5.34375 49.5312 6.84375 49.5078 8.76562V10.0195C49.5078 11.9805 49.918 13.5234 50.7383 14.6484C51.5664 15.7656 52.7031 16.3242 54.1484 16.3242C55.6016 16.3242 56.7266 15.7969 57.5234 14.7422C58.3203 13.6797 58.7305 12.1602 58.7539 10.1836V8.91797Z" fill="black"/>
</svg>
